<svg width="121" height="120" viewBox="0 0 121 120" fill="none" xmlns="http://www.w3.org/2000/svg">
<path d="M19.8691 94.5469L10.6191 62.6896C10.2858 61.698 10.3483 60.727 10.8066 59.7766C11.265 58.8263 11.9941 58.1858 12.9941 57.8553L20.3691 55.3761V27.6094C20.3691 25.5435 21.0983 23.808 22.5566 22.4032C24.015 20.9983 25.7858 20.2546 27.8691 20.1719H46.6191V5.29694H74.1191V20.1719H92.8691C94.9525 20.1719 96.7233 20.895 98.1816 22.3412C99.64 23.7874 100.369 25.5435 100.369 27.6094V55.5001L107.869 57.8553C108.786 58.1858 109.473 58.8056 109.932 59.7146C110.39 60.6237 110.452 61.574 110.119 62.5657L100.869 94.5469C96.8691 94.1337 93.14 92.9355 89.6816 90.9521C86.2233 88.9688 83.1608 86.6136 80.4941 83.8865C77.8275 86.8615 74.8066 89.382 71.4316 91.448C68.0566 93.5139 64.3691 94.5469 60.3691 94.5469C56.3691 94.5469 52.6816 93.5139 49.3066 91.448C45.9316 89.382 42.9108 86.8615 40.2441 83.8865C37.5775 86.6136 34.515 88.9688 31.0566 90.9521C27.5983 92.9355 23.8691 94.1337 19.8691 94.5469ZM10.3691 114.38V106.943H20.3691C23.8691 106.943 27.3275 106.406 30.7441 105.331C34.1608 104.257 37.3691 102.728 40.3691 100.745C43.3691 102.728 46.5775 104.216 49.9941 105.207C53.4108 106.199 56.8691 106.695 60.3691 106.695C63.8691 106.695 67.3275 106.199 70.7441 105.207C74.1608 104.216 77.3691 102.728 80.3691 100.745C83.3691 102.728 86.5775 104.257 89.9941 105.331C93.4108 106.406 96.8691 106.943 100.369 106.943H110.369V114.38H100.369C96.9525 114.38 93.5775 113.946 90.2441 113.079C86.9108 112.211 83.6191 110.951 80.3691 109.298C77.1191 110.951 73.7858 112.211 70.3691 113.079C66.9525 113.946 63.6191 114.38 60.3691 114.38C57.1191 114.38 53.7858 113.946 50.3691 113.079C46.9525 112.211 43.6191 110.951 40.3691 109.298C37.1191 110.951 33.8275 112.211 30.4941 113.079C27.1608 113.946 23.7858 114.38 20.3691 114.38H10.3691ZM27.8691 53.0209L60.3691 42.6084L92.8691 53.1448V27.6094H27.8691V53.0209ZM60.3691 87.1094C64.6191 87.1094 68.4108 85.4153 71.7441 82.0271C75.0775 78.6389 77.9525 75.4987 80.3691 72.6063C82.4525 75.0855 84.765 77.5027 87.3066 79.8579C89.8483 82.2131 92.6191 84.2584 95.6191 85.9938L101.994 63.8053L60.3691 50.4178L18.6191 63.8053L25.1191 85.7459C28.0358 84.1758 30.8066 82.2131 33.4316 79.8579C36.0566 77.5027 38.3691 75.0855 40.3691 72.6063C42.8691 75.5813 45.7441 78.7422 48.9941 82.0891C52.2441 85.436 56.0358 87.1094 60.3691 87.1094Z" fill="url(#paint0_linear_9_48)"/>
<defs>
<linearGradient id="paint0_linear_9_48" x1="60.3691" y1="5.29694" x2="60.3691" y2="114.38" gradientUnits="userSpaceOnUse">
<stop stop-color="#5EA64A"/>
<stop offset="1" stop-color="#2A6B35"/>
</linearGradient>
</defs>
</svg>
