<svg width="120" height="120" viewBox="0 0 120 120" fill="none" xmlns="http://www.w3.org/2000/svg">
<path d="M95.7 47.6907L94.5844 43.3522C93.758 43.0216 92.9109 42.5671 92.0432 41.9886C91.1755 41.4102 90.4524 40.7904 89.874 40.1292L84.4198 42.1126L81.9406 37.774L86.2792 34.3032C86.1139 33.89 85.9693 33.4355 85.8453 32.9397C85.7214 32.4438 85.6594 31.948 85.6594 31.4522C85.6594 30.9563 85.7214 30.4605 85.8453 29.9647C85.9693 29.4688 86.1139 29.0143 86.2792 28.6011L81.9406 25.1303L84.4198 20.7917L89.874 22.7751C90.4524 22.114 91.1755 21.4735 92.0432 20.8537C92.9109 20.2339 93.758 19.8001 94.5844 19.5522L95.7 15.2136H100.41L101.526 19.5522C102.352 19.8001 103.199 20.2339 104.067 20.8537C104.935 21.4735 105.658 22.114 106.236 22.7751L111.691 20.7917L114.17 25.1303L109.831 28.6011C109.997 29.0143 110.141 29.4688 110.265 29.9647C110.389 30.4605 110.451 30.9563 110.451 31.4522C110.451 31.948 110.389 32.4438 110.265 32.9397C110.141 33.4355 109.997 33.89 109.831 34.3032L114.17 37.774L111.691 42.1126L106.236 40.1292C105.658 40.7904 104.935 41.4102 104.067 41.9886C103.199 42.5671 102.352 43.0216 101.526 43.3522L100.41 47.6907H95.7ZM98.0552 38.6417C100.121 38.6417 101.836 37.96 103.199 36.5964C104.563 35.2329 105.245 33.5181 105.245 31.4522C105.245 29.3862 104.563 27.6714 103.199 26.3079C101.836 24.9444 100.121 24.2626 98.0552 24.2626C95.9892 24.2626 94.2745 24.9444 92.9109 26.3079C91.5474 27.6714 90.8656 29.3862 90.8656 31.4522C90.8656 33.5181 91.5474 35.2329 92.9109 36.5964C94.2745 37.96 95.9892 38.6417 98.0552 38.6417ZM82.3125 74.5897L82.0646 70.9949C81.4861 70.6643 80.887 70.2924 80.2672 69.8792C79.6474 69.4661 79.0896 69.0529 78.5938 68.6397L75.3708 70.3751L72.6438 66.4084L75.8667 64.0532C75.7014 63.7227 75.6188 63.4128 75.6188 63.1235C75.6188 62.8343 75.6188 62.5244 75.6188 62.1938C75.6188 61.8633 75.6188 61.5534 75.6188 61.2641C75.6188 60.9749 75.7014 60.665 75.8667 60.3345L72.6438 57.9792L75.3708 54.0126L78.5938 55.748C79.1722 55.3348 79.7507 54.9216 80.3292 54.5084C80.9076 54.0952 81.4861 53.7233 82.0646 53.3928L82.3125 49.798H87.2708L87.5188 53.3928C88.0972 53.7233 88.6757 54.0952 89.2542 54.5084C89.8326 54.9216 90.4111 55.3348 90.9896 55.748L94.2125 54.0126L96.9396 57.9792L93.7167 60.3345C93.882 60.665 93.9646 60.9749 93.9646 61.2641C93.9646 61.5534 93.9646 61.8633 93.9646 62.1938C93.9646 62.5244 93.9646 62.8343 93.9646 63.1235C93.9646 63.4128 93.882 63.7227 93.7167 64.0532L96.9396 66.4084L94.2125 70.3751L90.9896 68.6397C90.4938 69.0529 89.936 69.4661 89.3162 69.8792C88.6964 70.2924 88.0972 70.6643 87.5188 70.9949L87.2708 74.5897H82.3125ZM84.7917 66.9043C86.1139 66.9043 87.2295 66.4497 88.1385 65.5407C89.0476 64.6317 89.5021 63.5161 89.5021 62.1938C89.5021 60.8716 89.0476 59.756 88.1385 58.847C87.2295 57.9379 86.1139 57.4834 84.7917 57.4834C83.4695 57.4834 82.3538 57.9379 81.4448 58.847C80.5358 59.756 80.0813 60.8716 80.0813 62.1938C80.0813 63.5161 80.5358 64.6317 81.4448 65.5407C82.3538 66.4497 83.4695 66.9043 84.7917 66.9043ZM44.8771 66.6563C39.4229 66.6563 34.9604 64.8796 31.4896 61.3261C28.0188 57.7727 26.2833 53.3515 26.2833 48.0626H25.0438C24.3826 48.0626 23.8042 47.8147 23.3083 47.3188C22.8125 46.823 22.5646 46.2445 22.5646 45.5834C22.5646 44.9223 22.8125 44.3438 23.3083 43.848C23.8042 43.3522 24.3826 43.1042 25.0438 43.1042H26.2833C26.2833 39.7987 27.1097 36.8237 28.7625 34.1792C30.4153 31.5348 32.5639 29.3862 35.2083 27.7334V32.5678C35.2083 33.0636 35.3943 33.4975 35.7661 33.8694C36.138 34.2412 36.5719 34.4272 37.0677 34.4272C37.6462 34.4272 38.1007 34.2412 38.4313 33.8694C38.7618 33.4975 38.9271 33.0636 38.9271 32.5678V26.122C39.5882 25.9567 40.4972 25.8121 41.6542 25.6881C42.8111 25.5641 43.9267 25.5022 45.001 25.5022C46.0754 25.5022 47.191 25.5641 48.3479 25.6881C49.5049 25.8121 50.4139 25.9567 51.075 26.122V32.5678C51.075 33.0636 51.2403 33.4975 51.5708 33.8694C51.9014 34.2412 52.3559 34.4272 52.9344 34.4272C53.4302 34.4272 53.8641 34.2412 54.2359 33.8694C54.6078 33.4975 54.7938 33.0636 54.7938 32.5678V27.7334C57.4382 29.3862 59.5455 31.5348 61.1156 34.1792C62.6858 36.8237 63.4708 39.7987 63.4708 43.1042H64.7104C65.3715 43.1042 65.95 43.3522 66.4458 43.848C66.9417 44.3438 67.1896 44.9223 67.1896 45.5834C67.1896 46.2445 66.9417 46.823 66.4458 47.3188C65.95 47.8147 65.3715 48.0626 64.7104 48.0626H63.4708C63.4708 53.3515 61.7354 57.7727 58.2646 61.3261C54.7938 64.8796 50.3313 66.6563 44.8771 66.6563ZM44.8771 59.2188C48.3479 59.2188 51.075 58.1858 53.0583 56.1199C55.0417 54.0539 56.0333 51.3681 56.0333 48.0626H33.7208C33.7208 51.3681 34.7125 54.0539 36.6958 56.1199C38.6792 58.1858 41.4063 59.2188 44.8771 59.2188ZM5.70625 104.464V93.0595C5.70625 90.2497 6.36736 87.9152 7.68959 86.0558C9.01181 84.1964 10.8712 82.6883 13.2677 81.5313C17.7302 79.3827 22.5026 77.606 27.5849 76.2011C32.6672 74.7963 38.4313 74.0938 44.8771 74.0938C51.3229 74.0938 57.087 74.7963 62.1693 76.2011C67.2516 77.606 72.024 79.3827 76.4865 81.5313C78.883 82.6883 80.7424 84.1964 82.0646 86.0558C83.3868 87.9152 84.0479 90.2497 84.0479 93.0595V104.464H5.70625ZM13.1438 97.0261H76.6104V93.0595C76.6104 91.8199 76.2592 90.8075 75.5568 90.0225C74.8543 89.2374 74.0073 88.6383 73.0156 88.2251C69.4622 86.6549 65.4955 85.1468 61.1156 83.7006C56.7358 82.2544 51.3229 81.5313 44.8771 81.5313C38.4313 81.5313 33.0184 82.2544 28.6385 83.7006C24.2587 85.1468 20.292 86.6549 16.7385 88.2251C15.7469 88.6383 14.8998 89.2374 14.1974 90.0225C13.495 90.8075 13.1438 91.8199 13.1438 93.0595V97.0261Z" fill="url(#paint0_linear_10_69)"/>
<defs>
<linearGradient id="paint0_linear_10_69" x1="59.938" y1="15.2136" x2="59.938" y2="104.464" gradientUnits="userSpaceOnUse">
<stop stop-color="#B32760"/>
<stop offset="1" stop-color="#7E2F63"/>
</linearGradient>
</defs>
</svg>
