<svg width="40" height="42" viewBox="0 0 40 42" fill="none" xmlns="http://www.w3.org/2000/svg">
<g clip-path="url(#clip0_35_29)">
<path d="M31.0984 0.0671387H8.34839C3.86176 0.0671387 0.223389 3.8921 0.223389 8.60881V32.5255C0.223389 37.2422 3.86176 41.0671 8.34839 41.0671H31.0984C35.5866 41.0671 39.2234 37.2422 39.2234 32.5255V8.60881C39.2234 3.8921 35.5866 0.0671387 31.0984 0.0671387ZM26.2234 12.0255H23.0969C22.0975 12.0255 21.3484 12.456 21.3484 13.5442V15.4421H26.2234L25.8366 20.5671H21.3484V34.2338H16.4734V20.5671H13.2234V15.4421H16.4734V12.157C16.4734 8.70276 18.2024 6.90047 22.0975 6.90047H26.2234V12.0255Z" fill="#286834"/>
</g>
<defs>
<clipPath id="clip0_35_29">
<rect width="39" height="41" fill="white" transform="translate(0.223389 0.0671387)"/>
</clipPath>
</defs>
</svg>
