<svg width="31" height="31" viewBox="0 0 31 31" fill="none" xmlns="http://www.w3.org/2000/svg">
<circle cx="15.4825" cy="15.238" r="15.1796" fill="#5DA649"/>
<g clip-path="url(#clip0_16_549)">
<path d="M5.07285 25.6928L6.51063 20.4402C5.62342 18.9027 5.15722 17.1598 5.15807 15.3726C5.16063 9.78505 9.70752 5.23816 15.2942 5.23816C18.0053 5.23901 20.5502 6.29498 22.4644 8.2109C24.3777 10.1268 25.4312 12.6734 25.4303 15.3819C25.4277 20.9703 20.8809 25.5172 15.2942 25.5172C13.5982 25.5164 11.9268 25.0911 10.4464 24.2831L5.07285 25.6928ZM10.6953 22.4482C12.1237 23.2962 13.4874 23.8041 15.2908 23.805C19.934 23.805 23.7164 20.026 23.7189 15.3802C23.7206 10.7251 19.9561 6.95123 15.2976 6.94953C10.651 6.94953 6.87115 10.7285 6.86944 15.3734C6.86859 17.2697 7.42427 18.6896 8.35752 20.1751L7.50609 23.2842L10.6953 22.4482ZM20.4002 17.7913C20.3371 17.6856 20.1684 17.6226 19.9144 17.4956C19.6612 17.3686 18.4161 16.7558 18.1834 16.6714C17.9516 16.5871 17.7828 16.5444 17.6132 16.7984C17.4445 17.0516 16.9587 17.6226 16.8112 17.7913C16.6638 17.9601 16.5155 17.9814 16.2624 17.8544C16.0092 17.7274 15.1928 17.4606 14.2254 16.5973C13.4729 15.9257 12.9641 15.0964 12.8166 14.8425C12.6692 14.5893 12.8013 14.4521 12.9274 14.326C13.0416 14.2126 13.1805 14.0302 13.3075 13.8819C13.4362 13.7353 13.478 13.6297 13.5632 13.4601C13.6476 13.2913 13.6058 13.143 13.5419 13.016C13.478 12.8899 12.9717 11.643 12.7612 11.1359C12.555 10.6424 12.3462 10.7089 12.1911 10.7012L11.7053 10.6927C11.5365 10.6927 11.2621 10.7558 11.0303 11.0098C10.7984 11.2637 10.1439 11.8757 10.1439 13.1226C10.1439 14.3694 11.0516 15.5737 11.1777 15.7425C11.3047 15.9112 12.9632 18.4697 15.5038 19.5666C16.1081 19.8274 16.5803 19.9834 16.9476 20.1001C17.5544 20.2928 18.1067 20.2655 18.5431 20.2007C19.0297 20.1283 20.0414 19.5879 20.2527 18.9964C20.4641 18.4041 20.4641 17.897 20.4002 17.7913Z" fill="white"/>
</g>
<defs>
<clipPath id="clip0_16_549">
<rect width="22" height="22" fill="white" transform="translate(3.48254 5.23816)"/>
</clipPath>
</defs>
</svg>
