<svg width="42" height="42" viewBox="0 0 42 42" fill="none" xmlns="http://www.w3.org/2000/svg">
<g clip-path="url(#clip0_35_27)">
<path d="M26.2464 9.44247C24.8063 9.37756 24.3724 9.36389 20.7234 9.36389C17.0744 9.36389 16.6422 9.37756 15.2021 9.44247C11.495 9.6116 9.76785 11.3678 9.60043 15.0441C9.53381 16.4859 9.51843 16.9181 9.51843 20.5671C9.51843 24.2161 9.53381 24.6483 9.59872 26.0902C9.76785 29.7597 11.4881 31.5227 15.2003 31.6918C16.6405 31.7567 17.0744 31.7721 20.7234 31.7721C24.3741 31.7721 24.8063 31.7584 26.2464 31.6935C29.9535 31.5244 31.6789 29.7648 31.8481 26.0919C31.913 24.6501 31.9266 24.2178 31.9266 20.5688C31.9266 16.9198 31.913 16.4876 31.8481 15.0475C31.6789 11.3695 29.9501 9.6116 26.2464 9.44247V9.44247ZM20.7234 27.585C16.8472 27.585 13.7056 24.4433 13.7056 20.5671C13.7056 16.6909 16.8489 13.5493 20.7234 13.5493C24.5979 13.5493 27.7412 16.6909 27.7412 20.5671C27.7412 24.4433 24.5996 27.585 20.7234 27.585ZM28.0197 14.9126C27.1143 14.9126 26.3797 14.178 26.3797 13.2726C26.3797 12.3671 27.1143 11.6326 28.0197 11.6326C28.9251 11.6326 29.6597 12.3671 29.6597 13.2726C29.6597 14.178 28.9251 14.9126 28.0197 14.9126ZM25.2795 20.5671C25.2795 23.0835 23.2398 25.1233 20.7234 25.1233C18.207 25.1233 16.1673 23.0835 16.1673 20.5671C16.1673 18.0508 18.207 16.011 20.7234 16.011C23.2398 16.011 25.2795 18.0508 25.2795 20.5671ZM32.6817 0.0671387H8.76506C4.04835 0.0671387 0.223389 3.8921 0.223389 8.60881V32.5255C0.223389 37.2422 4.04835 41.0671 8.76506 41.0671H32.6817C37.4001 41.0671 41.2234 37.2422 41.2234 32.5255V8.60881C41.2234 3.8921 37.4001 0.0671387 32.6817 0.0671387V0.0671387ZM34.3081 26.2012C34.0826 31.1708 31.3168 33.9246 26.3592 34.1518C24.9003 34.2184 24.4356 34.2338 20.7234 34.2338C17.0112 34.2338 16.5482 34.2184 15.0893 34.1518C10.1215 33.9246 7.36764 31.1656 7.13872 26.2012C7.0721 24.744 7.05672 24.2793 7.05672 20.5671C7.05672 16.8566 7.0721 16.3903 7.13872 14.9331C7.36764 9.96522 10.1249 7.20968 15.0893 6.98418C16.5482 6.91585 17.0112 6.90047 20.7234 6.90047C24.4356 6.90047 24.9003 6.91585 26.3592 6.98247C31.327 7.20968 34.086 9.97376 34.3081 14.9313C34.3747 16.3903 34.3901 16.8566 34.3901 20.5671C34.3901 24.2793 34.3747 24.744 34.3081 26.2012V26.2012Z" fill="#286834"/>
</g>
<defs>
<clipPath id="clip0_35_27">
<rect width="41" height="41" fill="white" transform="translate(0.223389 0.0671387)"/>
</clipPath>
</defs>
</svg>
