<svg width="151" height="148" viewBox="0 0 151 148" fill="none" xmlns="http://www.w3.org/2000/svg">
<g clip-path="url(#clip0_17_2)">
<path d="M60.4372 130.05H54.4318L46.7226 118.022V130.05H40.6292V110.046H48.0989L54.2135 119.286V110.046H60.4372V130.05Z" fill="#60A64B"/>
<path d="M70.8354 130.05H64.4783V110.046H70.8354V130.05Z" fill="#60A64B"/>
<path d="M91.1497 130.05H74.9643V110.134H81.4063V124.691H91.1466V130.05H91.1497Z" fill="#60A64B"/>
<path d="M111.834 124.37C111.834 125.444 111.767 126.248 111.637 126.787C111.449 127.555 111.055 128.223 110.457 128.789C109.918 129.297 109.299 129.645 108.602 129.835C108.047 129.98 107.305 130.053 106.374 130.053H99.4712C98.0009 130.053 96.8065 129.914 95.8879 129.639C94.7238 129.291 93.8477 128.689 93.2657 127.833C92.9443 127.355 92.7412 126.832 92.6533 126.266C92.5654 125.701 92.5229 124.96 92.5229 124.046V116.146C92.5229 115.042 92.623 114.15 92.8291 113.47C93.0929 112.614 93.5415 111.909 94.1842 111.359C94.7238 110.893 95.3817 110.56 96.1608 110.357C96.9399 110.155 97.816 110.052 98.7921 110.052H106.35C107.28 110.052 108.047 110.143 108.645 110.324C109.242 110.506 109.836 110.875 110.424 111.434C111.012 111.994 111.409 112.68 111.615 113.491C111.761 114.072 111.834 114.906 111.834 115.995V124.376V124.37ZM105.61 124.648V115.538H98.7072V124.648H105.61Z" fill="#60A64B"/>
<path d="M0.691895 145.109L4.13571 136.804H5.8849L9.19533 145.109H7.77961L6.93078 142.937H2.98979L2.10459 145.109H0.691895ZM4.9906 137.796L3.39299 141.879H6.5094L4.9906 137.796Z" fill="#071121"/>
<path d="M9.99869 145.109V144.05H13.5971C14.1489 144.05 14.546 143.981 14.7855 143.845C15.1523 143.633 15.3342 143.276 15.3342 142.768C15.3342 142.124 15.0977 141.725 14.6218 141.57C14.4096 141.501 13.9851 141.468 13.3485 141.468H12.6543C11.6933 141.468 11.0082 141.334 10.5929 141.071C9.99869 140.699 9.7016 140.11 9.7016 139.302C9.7016 138.77 9.83802 138.301 10.1109 137.89C10.3746 137.487 10.7172 137.206 11.1385 137.046C11.5599 136.885 12.1571 136.807 12.9271 136.807H16.3558V137.865H12.9271C12.5664 137.865 12.2875 137.883 12.0935 137.917C11.8995 137.95 11.7327 138.014 11.5902 138.101C11.2719 138.304 11.1143 138.64 11.1143 139.111C11.1143 139.526 11.2537 139.822 11.5326 140.001C11.8115 140.179 12.2754 140.267 12.9271 140.267H13.4273C14.1398 140.267 14.6703 140.3 15.0189 140.364C15.3675 140.427 15.6555 140.545 15.8859 140.717C16.1588 140.923 16.371 141.204 16.5225 141.558C16.6741 141.912 16.7499 142.299 16.7499 142.726C16.7499 143.709 16.3649 144.395 15.5979 144.794C15.3584 144.915 15.0856 145 14.7824 145.042C14.4793 145.088 14.0276 145.109 13.4243 145.109H9.99869Z" fill="#071121"/>
<path d="M17.9504 145.109V144.05H21.5488C22.1005 144.05 22.4977 143.981 22.7372 143.845C23.104 143.633 23.2859 143.276 23.2859 142.768C23.2859 142.124 23.0494 141.725 22.5735 141.57C22.3613 141.501 21.9368 141.468 21.3002 141.468H20.606C19.645 141.468 18.9599 141.334 18.5446 141.071C17.9504 140.699 17.6533 140.11 17.6533 139.302C17.6533 138.77 17.7897 138.301 18.0625 137.89C18.3263 137.487 18.6689 137.206 19.0902 137.046C19.5116 136.885 20.1088 136.807 20.8788 136.807H24.3075V137.865H20.8788C20.5181 137.865 20.2392 137.883 20.0452 137.917C19.8511 137.95 19.6844 138.014 19.5419 138.101C19.2236 138.304 19.066 138.64 19.066 139.111C19.066 139.526 19.2054 139.822 19.4843 140.001C19.7632 140.179 20.2271 140.267 20.8788 140.267H21.379C22.0914 140.267 22.622 140.3 22.9706 140.364C23.3192 140.427 23.6072 140.545 23.8376 140.717C24.1104 140.923 24.3227 141.204 24.4742 141.558C24.6258 141.912 24.7016 142.299 24.7016 142.726C24.7016 143.709 24.3166 144.395 23.5496 144.794C23.3101 144.915 23.0373 145 22.7341 145.042C22.431 145.088 21.9793 145.109 21.376 145.109H17.9504Z" fill="#071121"/>
<path d="M32.0106 136.807V137.865H29.5824C29.1337 137.865 28.7881 137.896 28.5425 137.956C28.297 138.017 28.0757 138.125 27.8817 138.28C27.6119 138.494 27.4118 138.767 27.2814 139.096C27.148 139.426 27.0662 139.858 27.0359 140.397H32.0106V141.455H27.0359C27.0238 142.051 27.1571 142.593 27.433 143.08C27.6392 143.436 27.8999 143.688 28.2151 143.833C28.5274 143.978 28.9639 144.05 29.5187 144.05H32.0136V145.109H29.2762C28.5759 145.109 28.009 145.03 27.5755 144.873C26.7964 144.589 26.2234 143.972 25.8627 143.016C25.6687 142.505 25.5686 141.873 25.5686 141.117C25.5686 140.116 25.7263 139.302 26.0446 138.682C26.3993 137.995 26.8479 137.511 27.3936 137.227C27.9393 136.943 28.6972 136.801 29.6672 136.801H32.0136L32.0106 136.807Z" fill="#071121"/>
<path d="M33.3414 145.109V144.05H36.9399C37.4916 144.05 37.8887 143.981 38.1282 143.845C38.495 143.633 38.6769 143.276 38.6769 142.768C38.6769 142.124 38.4405 141.725 37.9645 141.57C37.7523 141.501 37.3279 141.468 36.6913 141.468H35.9971C35.0361 141.468 34.3509 141.334 33.9356 141.071C33.3414 140.699 33.0444 140.11 33.0444 139.302C33.0444 138.77 33.1808 138.301 33.4536 137.89C33.7174 137.487 34.0599 137.206 34.4813 137.046C34.9027 136.885 35.4999 136.807 36.2699 136.807H39.6986V137.865H36.2699C35.9092 137.865 35.6303 137.883 35.4362 137.917C35.2422 137.95 35.0755 138.014 34.933 138.101C34.6147 138.304 34.457 138.64 34.457 139.111C34.457 139.526 34.5965 139.822 34.8754 140.001C35.1543 140.179 35.6181 140.267 36.2699 140.267H36.7701C37.4825 140.267 38.013 140.3 38.3617 140.364C38.7103 140.427 38.9983 140.545 39.2287 140.717C39.5015 140.923 39.7137 141.204 39.8653 141.558C40.0169 141.912 40.0927 142.299 40.0927 142.726C40.0927 143.709 39.7077 144.395 38.9407 144.794C38.7012 144.915 38.4284 145 38.1252 145.042C37.822 145.088 37.3703 145.109 36.7671 145.109H33.3414Z" fill="#071121"/>
<path d="M41.2932 145.109V144.05H44.8916C45.4433 144.05 45.8404 143.981 46.0799 143.845C46.4468 143.633 46.6286 143.276 46.6286 142.768C46.6286 142.124 46.3922 141.725 45.9162 141.57C45.704 141.501 45.2796 141.468 44.643 141.468H43.9488C42.9878 141.468 42.3027 141.334 41.8873 141.071C41.2932 140.699 40.9961 140.11 40.9961 139.302C40.9961 138.77 41.1325 138.301 41.4053 137.89C41.6691 137.487 42.0116 137.206 42.433 137.046C42.8544 136.885 43.4516 136.807 44.2216 136.807H47.6503V137.865H44.2216C43.8609 137.865 43.582 137.883 43.3879 137.917C43.1939 137.95 43.0272 138.014 42.8847 138.101C42.5664 138.304 42.4088 138.64 42.4088 139.111C42.4088 139.526 42.5482 139.822 42.8271 140.001C43.106 140.179 43.5698 140.267 44.2216 140.267H44.7218C45.4342 140.267 45.9647 140.3 46.3134 140.364C46.662 140.427 46.95 140.545 47.1804 140.717C47.4532 140.923 47.6654 141.204 47.817 141.558C47.9686 141.912 48.0444 142.299 48.0444 142.726C48.0444 143.709 47.6594 144.395 46.8924 144.794C46.6529 144.915 46.3801 145 46.0769 145.042C45.7738 145.088 45.3221 145.109 44.7188 145.109H41.2932Z" fill="#071121"/>
<path d="M53.007 136.683C54.5773 136.683 55.6747 137.155 56.2992 138.101C56.7539 138.794 56.9813 139.753 56.9813 140.978C56.9813 142.484 56.6024 143.576 55.8415 144.256C55.1139 144.906 54.1286 145.23 52.8827 145.23C51.4609 145.23 50.4241 144.828 49.7723 144.02C49.5116 143.7 49.3055 143.264 49.1478 142.711C48.9902 142.157 48.9144 141.579 48.9144 140.975C48.9144 140.37 48.9963 139.783 49.16 139.238C49.3237 138.694 49.548 138.255 49.833 137.929C50.1877 137.514 50.6212 137.206 51.1365 137.003C51.6519 136.801 52.2733 136.695 53.0039 136.686L53.007 136.683ZM52.9948 137.741C51.8459 137.741 51.0729 138.141 50.6848 138.939C50.4484 139.423 50.3301 140.091 50.3301 140.947C50.3301 141.979 50.5029 142.75 50.8485 143.264C51.2548 143.869 51.9641 144.171 52.9767 144.171C54.1256 144.171 54.8896 143.769 55.2624 142.962C55.4655 142.52 55.5686 141.87 55.5686 141.014C55.5686 139.967 55.417 139.205 55.1169 138.727C54.7077 138.077 53.9983 137.75 52.9948 137.741Z" fill="#071121"/>
<path d="M59.6369 141.588V145.112H58.3061V136.807H62.0985C63.1929 136.807 63.9569 136.955 64.3904 137.251C64.6784 137.451 64.9057 137.714 65.0664 138.041C65.2301 138.367 65.3089 138.724 65.3089 139.108C65.3089 139.825 65.0785 140.385 64.6147 140.781C64.3601 140.996 64.0145 141.165 63.584 141.286C64.1448 141.534 64.5268 141.827 64.7299 142.169C64.933 142.511 65.0603 143.07 65.1149 143.848C65.1482 144.356 65.1725 144.658 65.1907 144.761C65.2089 144.864 65.2574 144.979 65.3332 145.115H63.972C63.9235 145.027 63.8932 144.937 63.8811 144.849C63.8689 144.761 63.8386 144.45 63.7901 143.914C63.7083 143.034 63.4657 142.426 63.0595 142.094C62.6533 141.758 61.953 141.592 60.9617 141.592H59.6339L59.6369 141.588ZM59.6369 140.53H62.0136C62.717 140.53 63.1838 140.445 63.4112 140.279C63.7356 140.037 63.8993 139.674 63.8993 139.196C63.8993 138.646 63.7234 138.262 63.3687 138.047C63.1687 137.926 62.717 137.865 62.0136 137.865H59.6369V140.53Z" fill="#071121"/>
<path d="M66.7155 145.109V136.804H68.0434V145.109H66.7155Z" fill="#071121"/>
<path d="M68.9892 145.109L72.436 136.804H74.1852L77.4957 145.109H76.0799L75.2311 142.937H71.2871L70.4019 145.109H68.9862H68.9892ZM73.2879 137.796L71.6903 141.879H74.8067L73.2879 137.796Z" fill="#071121"/>
<path d="M87.527 136.807V137.865H85.0987C84.6501 137.865 84.3045 137.896 84.0589 137.956C83.8134 138.017 83.5921 138.125 83.398 138.28C83.1313 138.494 82.9282 138.767 82.7978 139.096C82.6644 139.426 82.5826 139.858 82.5522 140.397H87.527V141.455H82.5522C82.5401 142.051 82.6735 142.593 82.9494 143.08C83.1555 143.436 83.4162 143.688 83.7285 143.833C84.0407 143.978 84.4773 144.05 85.032 144.05H87.527V145.109H84.7895C84.0892 145.109 83.5223 145.03 83.0888 144.873C82.3097 144.589 81.7368 143.972 81.376 143.016C81.182 142.505 81.085 141.873 81.085 141.117C81.085 140.116 81.2426 139.302 81.5609 138.682C81.9156 137.995 82.3643 137.511 82.91 137.227C83.4556 136.943 84.2135 136.801 85.1836 136.801H87.53L87.527 136.807Z" fill="#071121"/>
<path d="M91.9803 145.109V144.05H95.5787C96.1305 144.05 96.5276 143.981 96.7671 143.845C97.1339 143.633 97.3158 143.276 97.3158 142.768C97.3158 142.124 97.0793 141.725 96.6034 141.57C96.3912 141.501 95.9668 141.468 95.3301 141.468H94.6359C93.6749 141.468 92.9898 141.334 92.5745 141.071C91.9803 140.699 91.6832 140.11 91.6832 139.302C91.6832 138.77 91.8196 138.301 92.0925 137.89C92.3562 137.487 92.6988 137.206 93.1202 137.046C93.5415 136.885 94.1387 136.807 94.9088 136.807H98.3344V137.865H94.9088C94.548 137.865 94.2691 137.883 94.0751 137.917C93.8811 137.95 93.7143 138.014 93.5718 138.101C93.2535 138.304 93.0959 138.64 93.0959 139.111C93.0959 139.526 93.2353 139.822 93.5143 140.001C93.7932 140.179 94.257 140.267 94.9088 140.267H95.409C96.1214 140.267 96.6519 140.3 97.0005 140.364C97.3491 140.427 97.6402 140.545 97.8675 140.717C98.1404 140.923 98.3526 141.204 98.5041 141.558C98.6557 141.912 98.7315 142.299 98.7315 142.726C98.7315 143.709 98.3465 144.395 97.5795 144.794C97.34 144.915 97.0672 145 96.764 145.042C96.4609 145.088 96.0092 145.109 95.4059 145.109H91.9803Z" fill="#071121"/>
<path d="M106.041 136.807V137.865H103.612C103.164 137.865 102.818 137.896 102.572 137.956C102.327 138.017 102.106 138.125 101.912 138.28C101.645 138.494 101.442 138.767 101.311 139.096C101.178 139.426 101.096 139.858 101.066 140.397H106.041V141.455H101.066C101.054 142.051 101.187 142.593 101.463 143.08C101.669 143.436 101.93 143.688 102.242 143.833C102.554 143.978 102.991 144.05 103.546 144.05H106.041V145.109H103.303C102.603 145.109 102.036 145.03 101.602 144.873C100.823 144.589 100.25 143.972 99.8896 143.016C99.6955 142.505 99.5985 141.873 99.5985 141.117C99.5985 140.116 99.7562 139.302 100.074 138.682C100.429 137.995 100.878 137.511 101.424 137.227C101.969 136.943 102.727 136.801 103.697 136.801H106.044L106.041 136.807Z" fill="#071121"/>
<path d="M108.848 141.588V145.112H107.52V136.807H111.312C112.407 136.807 113.171 136.955 113.604 137.251C113.892 137.451 114.12 137.714 114.28 138.041C114.444 138.367 114.523 138.724 114.523 139.108C114.523 139.825 114.292 140.385 113.829 140.781C113.574 140.996 113.228 141.165 112.798 141.286C113.359 141.534 113.741 141.827 113.944 142.169C114.147 142.511 114.274 143.07 114.329 143.848C114.362 144.356 114.386 144.658 114.405 144.761C114.423 144.864 114.471 144.979 114.547 145.115H113.186C113.137 145.027 113.107 144.937 113.095 144.849C113.083 144.761 113.052 144.45 113.004 143.914C112.922 143.034 112.68 142.426 112.273 142.094C111.867 141.761 111.167 141.592 110.176 141.592H108.845L108.848 141.588ZM108.848 140.53H111.227C111.931 140.53 112.395 140.445 112.625 140.279C112.949 140.037 113.113 139.674 113.113 139.196C113.113 138.646 112.937 138.262 112.583 138.047C112.382 137.926 111.931 137.865 111.23 137.865H108.851V140.53H108.848Z" fill="#071121"/>
<path d="M123.548 136.807L119.998 145.112H118.418L114.844 136.807H116.381L119.228 143.869L122.111 136.807H123.545H123.548Z" fill="#071121"/>
<path d="M124.493 145.109V136.804H125.821V145.109H124.493Z" fill="#071121"/>
<path d="M133.849 144.05V145.109H131.654V145.65H131.763C131.821 145.641 131.906 145.65 132.018 145.672C132.133 145.693 132.218 145.72 132.272 145.747C132.548 145.886 132.688 146.146 132.688 146.531C132.688 146.866 132.582 147.114 132.372 147.269C132.163 147.426 131.83 147.501 131.375 147.501H130.711V146.924H131.339C131.733 146.924 131.93 146.803 131.93 146.564C131.93 146.325 131.733 146.222 131.339 146.222H131.039V145.097C130.514 145.085 130.111 145.055 129.829 145.003C129.547 144.952 129.271 144.861 129.001 144.734C128.301 144.404 127.789 143.796 127.458 142.907C127.243 142.333 127.134 141.697 127.134 141.008C127.134 140.04 127.334 139.184 127.737 138.446C128.071 137.832 128.492 137.406 128.998 137.161C129.508 136.919 130.235 136.795 131.181 136.795H133.84V137.853H131.254C130.69 137.853 130.262 137.896 129.974 137.983C129.686 138.071 129.444 138.231 129.25 138.467C129.032 138.727 128.859 139.084 128.735 139.541C128.61 139.998 128.55 140.497 128.55 141.041C128.55 142.066 128.789 142.85 129.268 143.388C129.492 143.639 129.753 143.811 130.047 143.902C130.341 143.993 130.784 144.038 131.363 144.038H133.84L133.849 144.05Z" fill="#071121"/>
<path d="M138.787 136.683C140.357 136.683 141.455 137.155 142.079 138.101C142.534 138.794 142.761 139.753 142.761 140.978C142.761 142.484 142.382 143.576 141.622 144.256C140.894 144.906 139.909 145.23 138.663 145.23C137.241 145.23 136.204 144.828 135.552 144.02C135.292 143.7 135.083 143.264 134.928 142.711C134.77 142.157 134.695 141.579 134.695 140.975C134.695 140.37 134.776 139.783 134.94 139.238C135.104 138.694 135.328 138.255 135.613 137.929C135.968 137.514 136.401 137.206 136.917 137.003C137.432 136.801 138.053 136.695 138.784 136.686L138.787 136.683ZM138.775 137.741C137.626 137.741 136.853 138.141 136.465 138.939C136.228 139.423 136.11 140.091 136.11 140.947C136.11 141.979 136.283 142.75 136.629 143.264C137.035 143.869 137.744 144.171 138.757 144.171C139.906 144.171 140.67 143.769 141.043 142.962C141.246 142.52 141.349 141.87 141.349 141.014C141.349 139.967 141.197 139.205 140.897 138.727C140.485 138.077 139.778 137.75 138.775 137.741Z" fill="#071121"/>
<path d="M143.941 145.109V144.05H147.539C148.091 144.05 148.488 143.981 148.727 143.845C149.094 143.633 149.276 143.276 149.276 142.768C149.276 142.124 149.04 141.725 148.564 141.57C148.352 141.501 147.927 141.468 147.291 141.468H146.596C145.635 141.468 144.95 141.334 144.535 141.071C143.941 140.699 143.644 140.11 143.644 139.302C143.644 138.77 143.78 138.301 144.053 137.89C144.317 137.487 144.659 137.206 145.081 137.046C145.502 136.885 146.099 136.807 146.869 136.807H150.295V137.865H146.869C146.508 137.865 146.229 137.883 146.035 137.917C145.841 137.95 145.675 138.014 145.532 138.101C145.214 138.304 145.056 138.64 145.056 139.111C145.056 139.526 145.196 139.822 145.475 140.001C145.754 140.179 146.217 140.267 146.869 140.267H147.369C148.082 140.267 148.612 140.3 148.961 140.364C149.31 140.427 149.601 140.545 149.828 140.717C150.101 140.923 150.313 141.204 150.465 141.558C150.616 141.912 150.692 142.299 150.692 142.726C150.692 143.709 150.307 144.395 149.54 144.794C149.3 144.915 149.028 145 148.724 145.042C148.421 145.088 147.97 145.109 147.366 145.109H143.941Z" fill="#071121"/>
<path d="M76.1224 82.7891L88.494 89.9148L105.649 80.0308V65.7793L76.1224 82.7891Z" fill="#7B2F62"/>
<path d="M76.1224 97.0406L88.494 89.9148L76.1224 82.7891V97.0406Z" fill="#B6255E"/>
<path d="M105.649 65.7793V80.0308L118.018 72.905L105.649 65.7793Z" fill="#1E4896"/>
<path d="M118.018 72.905V58.6536L105.649 65.7793L118.018 72.905Z" fill="#008CCF"/>
<path d="M76.1224 14.7589L88.494 7.63318L76.1224 0.507446V14.7589Z" fill="#52A04A"/>
<path d="M76.1224 82.7891L63.7507 89.9148L76.1224 97.0406V82.7891Z" fill="#A0243D"/>
<path d="M76.1224 14.7589V0.507446L63.7507 7.63318L76.1224 14.7589Z" fill="#12915B"/>
<path d="M76.1224 14.7589L63.7507 7.63318L46.5953 17.5142V31.7657L76.1224 14.7589Z" fill="#266432"/>
<path d="M46.5953 31.7657V17.5142L34.2267 24.64L46.5953 31.7657Z" fill="#77C04B"/>
<path d="M34.2267 24.64V38.8915L46.5953 31.7657L34.2267 24.64Z" fill="#FACC0B"/>
<path d="M73.2121 24.5523H60.4736L66.8429 42.0097L73.2121 24.5523Z" fill="#77C04B"/>
<path d="M78.2717 73.3345H91.0072L84.641 55.874L78.2717 73.3345Z" fill="#A0243D"/>
<path d="M84.641 55.874H71.9025L78.2717 73.3345L84.641 55.874Z" fill="#D91C5C"/>
<path d="M73.2121 24.5523L66.8429 42.0097H79.5813L73.2121 24.5523Z" fill="#12915B"/>
<path d="M66.8429 42.0097L71.9025 55.874L79.5813 42.0097H66.8429Z" fill="#BF212B"/>
<path d="M79.5813 42.0097L71.9025 55.874H84.641L79.5813 42.0097Z" fill="#B6255E"/>
<path d="M60.4736 24.5523L54.2832 42.0097H66.8429L60.4736 24.5523Z" fill="#266432"/>
<path d="M49.2934 56.0797L55.8263 73.3345L61.8954 56.0797H49.2934Z" fill="#FACC0B"/>
<path d="M54.2832 42.0097L49.2934 56.0797H61.8954L54.2832 42.0097Z" fill="#77C04B"/>
<path d="M66.8429 42.0097H54.2832L61.8954 56.0797L66.8429 42.0097Z" fill="#52A04A"/>
<path d="M49.2934 56.0797L43.1727 73.3345H55.8263L49.2934 56.0797Z" fill="#F6A228"/>
<path d="M36.9793 90.798H49.6814L43.1727 73.3345L36.9793 90.798Z" fill="#BF212B"/>
<path d="M43.1727 73.3345L49.6814 90.798L55.8263 73.3345H43.1727Z" fill="#E05726"/>
<path d="M91.0072 73.3345L97.3704 55.874H84.641L91.0072 73.3345Z" fill="#7B2F62"/>
<path d="M84.641 55.874H97.3704L89.6915 42.0097L84.641 55.874Z" fill="#008CCF"/>
<path d="M89.6915 42.0097L97.3703 55.874L102.421 42.0097H89.6915Z" fill="#1E4896"/>
<path d="M89.6915 42.0097H102.421L96.0547 24.5311L89.6915 42.0097Z" fill="#47C6EF"/>
<path d="M102.421 42.0097L108.79 24.5311H96.0547L102.421 42.0097Z" fill="#008CCF"/>
<path d="M96.0547 24.5311H96.0789L115.268 6.75003H102.533L96.0547 24.5311Z" fill="#47C6EF"/>
<path d="M108.79 24.5311L115.268 6.75003L96.0789 24.5311H108.79Z" fill="#1E4896"/>
<path d="M112.246 21.316L109.178 29.7332L107.956 33.0935L118.018 38.8914V24.64L112.246 21.316Z" fill="#47C6EF"/>
<path d="M105.649 39.4237V65.7793L118.018 58.6535V38.8914L107.956 33.0934L105.649 39.4237Z" fill="#008CCF"/>
<path d="M97.9433 13.0773L88.494 7.63318L76.1224 14.7589L93.6507 24.8547L97.9433 13.0773Z" fill="#77C04B"/>
<path d="M46.5953 57.2562V31.7657L34.2267 38.8914V58.6535L44.0852 64.3336L46.5953 57.2562Z" fill="#F6A228"/>
<path d="M34.2267 58.6536V72.905L39.8895 76.1685L42.7968 67.969L44.0852 64.3336L34.2267 58.6536Z" fill="#E05726"/>
<path d="M54.2044 84.4132L63.7507 89.9148L76.1224 82.7891L58.3728 72.5632L54.2044 84.4132Z" fill="#BF212B"/>
</g>
<defs>
<clipPath id="clip0_17_2">
<rect width="150" height="147" fill="white" transform="translate(0.691895 0.507446)"/>
</clipPath>
</defs>
</svg>
