<svg width="109" height="109" viewBox="0 0 109 109" fill="none" xmlns="http://www.w3.org/2000/svg">
<path d="M20.8805 93.2636C19.0055 93.2636 17.4117 92.6074 16.0992 91.2949C14.7867 89.9824 14.1305 88.3886 14.1305 86.5136V21.0386C14.1305 19.1636 14.7117 17.5699 15.8742 16.2574C17.0367 14.9449 18.0305 14.2886 18.8555 14.2886H41.5805C42.1055 11.6636 43.3992 9.50739 45.4617 7.81989C47.5242 6.13239 49.9055 5.28864 52.6055 5.28864C55.3055 5.28864 57.6867 6.13239 59.7492 7.81989C61.8117 9.50739 63.1055 11.6636 63.6305 14.2886H86.3555C88.2305 14.2886 89.8242 14.9449 91.1367 16.2574C92.4492 17.5699 93.1055 19.1636 93.1055 21.0386V48.7136H86.3555V21.0386H74.4305V35.6636H32.8055V21.0386H20.8805V86.5136H49.0055V93.2636H20.8805ZM99.4055 103.839L85.9055 90.3386C84.4055 91.5386 82.6992 92.4011 80.7867 92.9261C78.8742 93.4511 76.9055 93.7136 74.8805 93.7136C69.5555 93.7136 65.0367 91.8574 61.3242 88.1449C57.6117 84.4324 55.7555 79.9136 55.7555 74.5886C55.7555 69.2636 57.6117 64.7449 61.3242 61.0324C65.0367 57.3199 69.5555 55.4636 74.8805 55.4636C80.2055 55.4636 84.7242 57.3199 88.4367 61.0324C92.1492 64.7449 94.0055 69.2636 94.0055 74.5886C94.0055 76.6136 93.743 78.5824 93.218 80.4949C92.693 82.4074 91.8305 84.1136 90.6305 85.6136L104.13 99.1136L99.4055 103.839ZM74.8805 86.9636C78.4055 86.9636 81.3492 85.7824 83.7117 83.4199C86.0742 81.0574 87.2555 78.1136 87.2555 74.5886C87.2555 71.0636 86.0742 68.1199 83.7117 65.7574C81.3492 63.3949 78.4055 62.2136 74.8805 62.2136C71.3555 62.2136 68.4117 63.3949 66.0492 65.7574C63.6867 68.1199 62.5055 71.0636 62.5055 74.5886C62.5055 78.1136 63.6867 81.0574 66.0492 83.4199C68.4117 85.7824 71.3555 86.9636 74.8805 86.9636ZM54.6305 20.5886C55.9055 20.5886 56.9742 20.1574 57.8367 19.2949C58.6992 18.4324 59.1305 17.3636 59.1305 16.0886C59.1305 14.8136 58.6992 13.7449 57.8367 12.8824C56.9742 12.0199 55.9055 11.5886 54.6305 11.5886C53.3555 11.5886 52.2867 12.0199 51.4242 12.8824C50.5617 13.7449 50.1305 14.8136 50.1305 16.0886C50.1305 17.3636 50.5617 18.4324 51.4242 19.2949C52.2867 20.1574 53.3555 20.5886 54.6305 20.5886Z" fill="url(#paint0_linear_10_75)"/>
<defs>
<linearGradient id="paint0_linear_10_75" x1="59.1305" y1="5.28864" x2="59.1305" y2="103.839" gradientUnits="userSpaceOnUse">
<stop stop-color="#DB1E5D"/>
<stop offset="1" stop-color="#B82332"/>
</linearGradient>
</defs>
</svg>
