<svg width="118" height="119" viewBox="0 0 118 119" fill="none" xmlns="http://www.w3.org/2000/svg">
<path d="M89.3504 103.589H25.2441C22.3191 103.589 19.9629 102.687 18.1754 100.884C16.3879 99.0817 15.4941 96.7053 15.4941 93.7553V27.5032C15.4941 23.8157 16.7941 21.4598 19.3941 20.4355C21.9941 19.4112 24.5941 20.2101 27.1941 22.8324L32.6785 28.3636L27.5598 33.5261L30.8504 36.8449L35.9691 31.6824L50.2285 46.0636L45.1098 51.2261L48.4004 54.5449L53.5191 49.3824L67.9004 63.8865L62.7816 69.049L66.0723 72.3678L71.191 67.2053L85.4504 81.5865L80.3316 86.749L83.6223 90.0678L88.741 84.9053L94.2254 90.4365C97.4754 93.7143 98.552 96.7258 97.4551 99.4709C96.3582 102.216 93.6566 103.589 89.3504 103.589ZM25.2441 36.8449V93.7553H81.6723L25.2441 36.8449Z" fill="url(#paint0_linear_10_73)"/>
<defs>
<linearGradient id="paint0_linear_10_73" x1="56.6822" y1="20.0039" x2="56.6822" y2="103.589" gradientUnits="userSpaceOnUse">
<stop stop-color="#F8C808"/>
<stop offset="1" stop-color="#FCA327"/>
</linearGradient>
</defs>
</svg>
