<svg width="108" height="108" viewBox="0 0 108 108" fill="none" xmlns="http://www.w3.org/2000/svg">
<path d="M43.3763 99.0469L41.1472 85.0032C39.7354 84.483 38.2493 83.7771 36.6888 82.8855C35.1284 81.9938 33.7538 81.065 32.5649 80.099L19.4128 86.1177L9.04718 67.8386L21.0847 59.0334C20.9361 58.3646 20.8432 57.603 20.806 56.7485C20.7689 55.894 20.7503 55.1323 20.7503 54.4636C20.7503 53.7948 20.7689 53.0332 20.806 52.1787C20.8432 51.3242 20.9361 50.5625 21.0847 49.8938L9.04718 41.0886L19.4128 22.8094L32.5649 28.8282C33.7538 27.8622 35.1284 26.9334 36.6888 26.0417C38.2493 25.15 39.7354 24.4813 41.1472 24.0355L43.3763 9.88025H63.8847L66.1138 23.924C67.5257 24.4441 69.0303 25.1315 70.6279 25.986C72.2255 26.8405 73.5816 27.7879 74.6961 28.8282L87.8482 22.8094L98.2138 41.0886L86.1763 49.6709C86.325 50.4139 86.4178 51.2127 86.455 52.0672C86.4921 52.9217 86.5107 53.7205 86.5107 54.4636C86.5107 55.2066 86.4921 55.9868 86.455 56.8042C86.4178 57.6216 86.325 58.4018 86.1763 59.1448L98.2138 67.8386L87.8482 86.1177L74.6961 80.099C73.5072 81.065 72.1512 82.0124 70.6279 82.9412C69.1046 83.87 67.6 84.5573 66.1138 85.0032L63.8847 99.0469H43.3763ZM53.6305 68.9532C57.643 68.9532 61.0611 67.5414 63.8847 64.7177C66.7083 61.8941 68.1201 58.4761 68.1201 54.4636C68.1201 50.4511 66.7083 47.033 63.8847 44.2094C61.0611 41.3858 57.643 39.974 53.6305 39.974C49.618 39.974 46.2 41.3858 43.3763 44.2094C40.5527 47.033 39.1409 50.4511 39.1409 54.4636C39.1409 58.4761 40.5527 61.8941 43.3763 64.7177C46.2 67.5414 49.618 68.9532 53.6305 68.9532ZM53.6305 62.2657C51.4757 62.2657 49.6366 61.504 48.1133 59.9808C46.5901 58.4575 45.8284 56.6184 45.8284 54.4636C45.8284 52.3087 46.5901 50.4697 48.1133 48.9464C49.6366 47.4231 51.4757 46.6615 53.6305 46.6615C55.7854 46.6615 57.6244 47.4231 59.1477 48.9464C60.671 50.4697 61.4326 52.3087 61.4326 54.4636C61.4326 56.6184 60.671 58.4575 59.1477 59.9808C57.6244 61.504 55.7854 62.2657 53.6305 62.2657ZM48.7263 92.3594H58.5347L60.0951 79.8761C62.5472 79.2816 64.8692 78.3528 67.0612 77.0896C69.2533 75.8264 71.2409 74.3032 73.0243 72.5198L84.8388 77.6469L89.2972 69.6219L78.8201 61.9313C79.1173 60.6681 79.3588 59.4235 79.5446 58.1974C79.7303 56.9714 79.8232 55.7268 79.8232 54.4636C79.8232 53.2004 79.7489 51.9558 79.6003 50.7297C79.4517 49.5037 79.1916 48.2591 78.8201 46.9959L89.2972 39.3052L84.8388 31.2802L73.0243 36.4073C71.3152 34.4754 69.3833 32.8592 67.2284 31.5589C65.0736 30.2585 62.6958 29.4226 60.0951 29.0511L58.5347 16.5677H48.7263L47.1659 29.0511C44.6395 29.5712 42.2803 30.4629 40.0883 31.7261C37.8963 32.9893 35.9458 34.5497 34.2368 36.4073L22.4222 31.2802L17.9638 39.3052L28.4409 46.9959C28.1437 48.2591 27.9022 49.5037 27.7164 50.7297C27.5307 51.9558 27.4378 53.2004 27.4378 54.4636C27.4378 55.7268 27.5307 56.9714 27.7164 58.1974C27.9022 59.4235 28.1437 60.6681 28.4409 61.9313L17.9638 69.6219L22.4222 77.6469L34.2368 72.5198C36.0201 74.3032 38.0078 75.8264 40.1998 77.0896C42.3918 78.3528 44.7138 79.2816 47.1659 79.8761L48.7263 92.3594Z" fill="url(#paint0_linear_10_71)"/>
<defs>
<linearGradient id="paint0_linear_10_71" x1="53.6305" y1="9.88025" x2="53.6305" y2="99.0469" gradientUnits="userSpaceOnUse">
<stop stop-color="#F49F25"/>
<stop offset="1" stop-color="#DE5E23"/>
</linearGradient>
</defs>
</svg>
