<svg width="40" height="40" viewBox="0 0 40 40" fill="none" xmlns="http://www.w3.org/2000/svg">
<circle cx="20.0111" cy="20.0075" r="19.0687" fill="#5DA649"/>
<g clip-path="url(#clip0_16_539)">
<path d="M6.93428 33.1409L8.74045 26.5425C7.62591 24.6111 7.04027 22.4216 7.04134 20.1765C7.04456 13.1574 12.7564 7.44556 19.7744 7.44556C23.1801 7.44663 26.3771 8.77315 28.7817 11.1799C31.1853 13.5867 32.5086 16.7858 32.5075 20.1883C32.5043 27.2085 26.7925 32.9203 19.7744 32.9203C17.6439 32.9192 15.5444 32.385 13.6847 31.37L6.93428 33.1409V33.1409ZM13.9973 29.065C15.7917 30.1302 17.5047 30.7683 19.7702 30.7694C25.603 30.7694 30.3545 26.0222 30.3577 20.1861C30.3598 14.3383 25.6308 9.59754 19.7787 9.5954C13.9416 9.5954 9.19333 14.3426 9.19119 20.1776C9.19011 22.5598 9.88817 24.3434 11.0605 26.2096L9.99095 30.1152L13.9973 29.065V29.065ZM26.1886 23.215C26.1094 23.0822 25.8974 23.003 25.5784 22.8435C25.2604 22.6839 23.6962 21.9142 23.4039 21.8082C23.1127 21.7022 22.9007 21.6486 22.6876 21.9677C22.4757 22.2857 21.8654 23.003 21.6802 23.215C21.495 23.427 21.3087 23.4537 20.9907 23.2942C20.6727 23.1347 19.647 22.7996 18.4319 21.715C17.4865 20.8714 16.8473 19.8296 16.6621 19.5106C16.4769 19.1926 16.6428 19.0202 16.8013 18.8618C16.9447 18.7194 17.1193 18.4903 17.2788 18.304C17.4405 18.1198 17.4929 17.9871 17.6 17.774C17.706 17.562 17.6535 17.3757 17.5732 17.2162C17.4929 17.0577 16.857 15.4914 16.5925 14.8544C16.3334 14.2345 16.0711 14.318 15.8762 14.3083L15.266 14.2976C15.054 14.2976 14.7093 14.3769 14.418 14.6959C14.1268 15.015 13.3046 15.7837 13.3046 17.35C13.3046 18.9164 14.4448 20.4292 14.6033 20.6412C14.7628 20.8532 16.8462 24.0672 20.0378 25.4451C20.7969 25.7727 21.39 25.9687 21.8515 26.1153C22.6138 26.3573 23.3075 26.323 23.8557 26.2417C24.467 26.1507 25.7379 25.4719 26.0034 24.7289C26.2689 23.9848 26.2689 23.3477 26.1886 23.215V23.215Z" fill="#F7FBF7"/>
</g>
<defs>
<clipPath id="clip0_16_539">
<rect width="27.6366" height="27.6366" fill="white" transform="translate(4.93654 7.44556)"/>
</clipPath>
</defs>
</svg>
